<svg width="14" height="26" viewBox="0 0 14 26" fill="none" xmlns="http://www.w3.org/2000/svg">
<path d="M0.305568 1.78646C0.109774 1.58931 -1.07864e-06 1.3235 -1.09075e-06 1.04655C-1.10286e-06 0.769606 0.109773 0.503796 0.305568 0.306643C0.401847 0.209524 0.516609 0.132399 0.643176 0.0797538C0.769742 0.027111 0.905586 -3.95845e-08 1.0428 -4.55823e-08C1.18001 -5.15801e-08 1.31586 0.027111 1.44242 0.0797538C1.56899 0.132399 1.68375 0.209524 1.78003 0.306642L13.6944 12.2601C13.8902 12.4572 14 12.7231 14 13C14 13.2769 13.8902 13.5428 13.6944 13.7399L1.78003 25.6934C1.68375 25.7905 1.56899 25.8676 1.44242 25.9202C1.31586 25.9729 1.18001 26 1.0428 26C0.905587 26 0.769744 25.9729 0.643177 25.9202C0.51661 25.8676 0.401848 25.7905 0.305569 25.6934C0.109775 25.4962 -3.36405e-08 25.2304 -4.57462e-08 24.9534C-5.78519e-08 24.6765 0.109775 24.4107 0.305569 24.2135L11.1716 12.9992L0.305568 1.78646Z" fill="#0659A9"/>
</svg>
