<svg width="22" height="22" viewBox="0 0 22 22" fill="none" xmlns="http://www.w3.org/2000/svg">
<path fill-rule="evenodd" clip-rule="evenodd" d="M11 22C17.0753 22 22 17.0753 22 11C22 4.9247 17.0753 0 11 0C4.9247 0 0 4.9247 0 11C0 17.0753 4.9247 22 11 22ZM14.8896 7.1104C15.0962 6.90414 15.3762 6.78838 15.6681 6.78859C15.96 6.78879 16.2398 6.90495 16.4461 7.1115C16.6524 7.31805 16.7681 7.59808 16.7679 7.88998C16.7677 8.18188 16.6516 8.46174 16.445 8.668L10.2267 14.8863L10.2223 14.8907C10.1204 14.9932 9.9992 15.0745 9.86574 15.1301C9.73227 15.1856 9.58915 15.2141 9.4446 15.2141C9.30005 15.2141 9.15693 15.1856 9.02346 15.1301C8.89 15.0745 8.76882 14.9932 8.6669 14.8907L8.6625 14.8863L5.555 11.7788C5.44994 11.6773 5.36614 11.556 5.30849 11.4217C5.25084 11.2875 5.22049 11.1432 5.21922 10.9971C5.21796 10.8511 5.24579 10.7062 5.3011 10.5711C5.3564 10.4359 5.43808 10.313 5.54137 10.2098C5.64465 10.1065 5.76746 10.0248 5.90265 9.9695C6.03784 9.91419 6.18268 9.88636 6.32874 9.88762C6.4748 9.88889 6.61914 9.91924 6.75335 9.97689C6.88755 10.0345 7.00893 10.1183 7.1104 10.2234L9.4446 12.5565L14.8896 7.1115V7.1104Z" fill="#6AA43E"/>
</svg>
