<svg width="20" height="20" viewBox="0 0 20 20" fill="none" xmlns="http://www.w3.org/2000/svg">
<g clip-path="url(#clip0_1_622)">
<path d="M19.0632 15.7546C19.0632 16.0819 18.9905 16.4183 18.836 16.7455C18.7503 16.9269 18.6508 17.1026 18.5341 17.2728C18.4935 17.332 18.4509 17.3905 18.4061 17.4484C18.3472 17.5244 18.2845 17.5992 18.2178 17.6728C18.0454 17.8627 17.8663 18.0323 17.6792 18.1819C17.383 18.419 17.0669 18.6062 16.7269 18.7455C16.1814 18.9728 15.5905 19.091 14.9541 19.091C14.0269 19.091 13.036 18.8728 11.9905 18.4274C10.9451 17.9819 9.8996 17.3819 8.86324 16.6274C7.81778 15.8637 6.82687 15.0183 5.88142 14.0819C4.94506 13.1365 4.0996 12.1455 3.34505 11.1092C2.5996 10.0728 1.9996 9.03645 1.56324 8.00918C1.12687 6.97282 0.908691 5.98191 0.908691 5.03645C0.908691 4.41827 1.01778 3.82736 1.23596 3.28191C1.45415 2.72736 1.7996 2.21827 2.28142 1.76373C2.86324 1.191 3.4996 0.90918 4.17233 0.90918C4.42687 0.90918 4.68142 0.963725 4.90869 1.07282C5.14506 1.18191 5.35415 1.34554 5.51778 1.58191L7.62687 4.55463C7.79051 4.78191 7.90869 4.991 7.99051 5.191C8.07233 5.38191 8.11778 5.57282 8.11778 5.74554C8.11778 5.96372 8.05415 6.18191 7.92687 6.391C7.80869 6.60009 7.63596 6.81827 7.41778 7.03645L6.72687 7.75463C6.62687 7.85463 6.58142 7.97282 6.58142 8.11827C6.58142 8.191 6.59051 8.25463 6.60869 8.32736C6.63596 8.40009 6.66324 8.45463 6.68142 8.50918C6.84506 8.80918 7.12687 9.20009 7.52687 9.67282C7.93596 10.1455 8.37233 10.6274 8.84505 11.1092C9.33596 11.591 9.80869 12.0365 10.2905 12.4455C10.7632 12.8455 11.1541 13.1183 11.4632 13.2819C11.5087 13.3001 11.5632 13.3274 11.6269 13.3546C11.6996 13.3819 11.7723 13.391 11.8541 13.391C12.0087 13.391 12.1269 13.3365 12.2269 13.2365L12.9178 12.5546C13.1451 12.3274 13.3632 12.1546 13.5723 12.0455C13.7814 11.9183 13.9905 11.8546 14.2178 11.8546C14.3905 11.8546 14.5723 11.891 14.7723 11.9728C14.9723 12.0546 15.1814 12.1728 15.4087 12.3274L18.4178 14.4637C18.6541 14.6274 18.8178 14.8183 18.9178 15.0455C19.0087 15.2728 19.0632 15.5001 19.0632 15.7546Z" fill="white"/>
<path fill-rule="evenodd" clip-rule="evenodd" d="M1.80849 1.27289C2.49208 0.602066 3.29122 0.227539 4.17251 0.227539C4.52085 0.227539 4.87533 0.301521 5.19924 0.456084C5.53391 0.611439 5.83895 0.849294 6.07611 1.19047L8.18187 4.15845C8.36823 4.41759 8.51405 4.67114 8.6196 4.92786C8.72678 5.17945 8.79978 5.46067 8.79978 5.74572C8.79978 6.09742 8.69732 6.43357 8.51523 6.73608C8.36051 7.00739 8.14911 7.26906 7.9049 7.51392L7.27876 8.16477C7.2851 8.17975 7.2936 8.19999 7.3028 8.22345C7.43887 8.46199 7.6798 8.79772 8.04513 9.22972C8.44523 9.69199 8.8696 10.1604 9.32741 10.6273C9.81096 11.1017 10.269 11.5328 10.7314 11.9255C11.1687 12.2954 11.5094 12.5313 11.757 12.6659C11.7771 12.6745 11.7955 12.6829 11.8105 12.6897L12.4375 12.071C12.6861 11.8226 12.9527 11.6037 13.2372 11.4517C13.5345 11.2747 13.8586 11.173 14.218 11.173C14.4906 11.173 14.76 11.2312 15.0307 11.3419C15.2879 11.4472 15.5397 11.592 15.7922 11.7637L15.798 11.7676L18.8097 13.9058C19.1321 14.1298 19.3847 14.4134 19.542 14.7711L19.5467 14.7817L19.5511 14.7925C19.6669 15.0821 19.7452 15.3958 19.7452 15.7548C19.7452 16.1844 19.6495 16.62 19.4527 17.0369C19.3524 17.2492 19.235 17.4567 19.0967 17.6584C19.0487 17.7285 18.9982 17.7978 18.9452 17.8662C18.8756 17.9561 18.8016 18.0443 18.7231 18.1308C18.5284 18.3454 18.3229 18.5405 18.1054 18.7144C17.7607 18.9904 17.3891 19.211 16.9875 19.3758C16.3563 19.6385 15.6766 19.773 14.9543 19.773C13.9192 19.773 12.8373 19.5294 11.7234 19.0548C10.6257 18.5871 9.53569 17.9604 8.46214 17.1787L8.46123 17.1781C7.3877 16.394 6.37091 15.5263 5.40181 14.5665L5.39713 14.5619C4.43748 13.5929 3.56957 12.5759 2.79403 11.5106L2.79172 11.5075C2.02227 10.4378 1.39532 9.35754 0.935869 8.2759L0.935023 8.2739C0.469951 7.1694 0.227051 6.08846 0.227051 5.03663C0.227051 4.3383 0.350324 3.66147 0.602378 3.03065C0.858751 2.37984 1.26144 1.7903 1.80849 1.27289Z" fill="white"/>
</g>
<defs>
<clipPath id="clip0_1_622">
<rect width="20" height="20" fill="white"/>
</clipPath>
</defs>
</svg>