<svg width="17" height="17" viewBox="0 0 17 17" fill="none" xmlns="http://www.w3.org/2000/svg">
<path d="M16.302 7.59194L10.146 0.632808C9.94646 0.453942 9.686 0.358325 9.41816 0.365623C9.15032 0.372922 8.89545 0.48258 8.70599 0.672044C8.51653 0.861508 8.40687 1.11637 8.39957 1.38421C8.39227 1.65206 8.48789 1.91251 8.66675 2.11201L14.18 8.34507L8.66675 14.5781C8.48789 14.7776 8.39227 15.0381 8.39957 15.3059C8.40687 15.5738 8.51653 15.8286 8.70599 16.0181C8.89545 16.2076 9.15032 16.3172 9.41816 16.3245C9.686 16.3318 9.94646 16.2362 10.146 16.0573L16.302 9.09819C16.5101 8.89015 16.6099 8.61761 16.6058 8.34507C16.608 8.20561 16.5823 8.06712 16.5301 7.93777C16.4779 7.80842 16.4004 7.69083 16.302 7.59194ZM1.20415 16.0594C1.61192 16.4672 2.27559 16.4672 2.68336 16.0594L8.83943 9.10027C9.04748 8.89223 9.14734 8.61969 9.14318 8.34715C9.14606 8.2076 9.12063 8.06893 9.06842 7.93948C9.01621 7.81004 8.93832 7.69252 8.83943 7.59402L2.68544 0.632808C2.48594 0.453942 2.22548 0.358325 1.95764 0.365623C1.68979 0.372922 1.43493 0.48258 1.24547 0.672044C1.056 0.861508 0.946344 1.11637 0.939046 1.38421C0.931748 1.65206 1.02736 1.91251 1.20623 2.11201L6.71945 8.34507L1.20623 14.5781C1.00954 14.7743 0.898829 15.0405 0.898439 15.3183C0.898048 15.5961 1.00801 15.8627 1.20415 16.0594Z" fill="#00255B"/>
</svg>
