<svg width="40" height="40" viewBox="0 0 40 40" fill="none" xmlns="http://www.w3.org/2000/svg">
<circle cx="20" cy="20" r="20" fill="#0659A9"/>
<path d="M13.9944 20.5165C13.927 20.5165 13.8624 20.5433 13.8147 20.5909C13.767 20.6386 13.7402 20.7033 13.7402 20.7707C13.7402 20.8381 13.767 20.9027 13.8147 20.9504C13.8624 20.9981 13.927 21.0249 13.9944 21.0249H14.7824C14.8415 21.3117 14.9976 21.5694 15.2245 21.7546C15.4513 21.9398 15.7351 22.0411 16.0279 22.0416H16.1143V22.8059C16.1143 22.8733 16.1411 22.9379 16.1888 22.9856C16.2365 23.0333 16.3011 23.0601 16.3685 23.0601C16.4359 23.0601 16.5006 23.0333 16.5483 22.9856C16.5959 22.9379 16.6227 22.8733 16.6227 22.8059V22.0416H18.319V22.8059C18.319 22.8733 18.3458 22.9379 18.3934 22.9856C18.4411 23.0333 18.5058 23.0601 18.5732 23.0601C18.6406 23.0601 18.7052 23.0333 18.7529 22.9856C18.8006 22.9379 18.8274 22.8733 18.8274 22.8059V22.0416H20.5253V22.8059C20.5253 22.8733 20.5521 22.9379 20.5998 22.9856C20.6474 23.0333 20.7121 23.0601 20.7795 23.0601C20.8469 23.0601 20.9116 23.0333 20.9593 22.9856C21.0069 22.9379 21.0337 22.8733 21.0337 22.8059V22.0416H21.1184C21.4114 22.0417 21.6954 21.9405 21.9224 21.7552C22.1494 21.5699 22.3054 21.3119 22.3639 21.0249H23.1536C23.221 21.0249 23.2857 20.9981 23.3334 20.9504C23.381 20.9027 23.4078 20.8381 23.4078 20.7707C23.4078 20.7033 23.381 20.6386 23.3334 20.5909C23.2857 20.5433 23.221 20.5165 23.1536 20.5165H22.3894V18.8185H23.1536C23.221 18.8185 23.2857 18.7917 23.3334 18.7441C23.381 18.6964 23.4078 18.6318 23.4078 18.5643C23.4078 18.4969 23.381 18.4323 23.3334 18.3846C23.2857 18.3369 23.221 18.3102 23.1536 18.3102H22.3894V16.7833H23.1536C23.221 16.7833 23.2857 16.7566 23.3334 16.7089C23.381 16.6612 23.4078 16.5966 23.4078 16.5291C23.4078 16.4617 23.381 16.3971 23.3334 16.3494C23.2857 16.3017 23.221 16.275 23.1536 16.275H22.386C22.3642 15.9533 22.2213 15.6519 21.9861 15.4314C21.7509 15.211 21.4408 15.0879 21.1184 15.0871H21.0337V14.3245C21.0337 14.2571 21.0069 14.1924 20.9593 14.1448C20.9116 14.0971 20.8469 14.0703 20.7795 14.0703C20.7121 14.0703 20.6474 14.0971 20.5998 14.1448C20.5521 14.1924 20.5253 14.2571 20.5253 14.3245V15.0871H18.8274V14.3245C18.8274 14.2571 18.8006 14.1924 18.7529 14.1448C18.7052 14.0971 18.6406 14.0703 18.5732 14.0703C18.5058 14.0703 18.4411 14.0971 18.3934 14.1448C18.3458 14.1924 18.319 14.2571 18.319 14.3245V15.0871H16.6227V14.3245C16.6227 14.2571 16.5959 14.1924 16.5483 14.1448C16.5006 14.0971 16.4359 14.0703 16.3685 14.0703C16.3011 14.0703 16.2365 14.0971 16.1888 14.1448C16.1411 14.1924 16.1143 14.2571 16.1143 14.3245V15.0871H16.0279C15.7056 15.0877 15.3956 15.2107 15.1606 15.4312C14.9256 15.6518 14.7831 15.9534 14.7621 16.275H13.9944C13.927 16.275 13.8624 16.3017 13.8147 16.3494C13.767 16.3971 13.7402 16.4617 13.7402 16.5291C13.7402 16.5966 13.767 16.6612 13.8147 16.7089C13.8624 16.7566 13.927 16.7833 13.9944 16.7833H14.757V18.3102H13.9944C13.927 18.3102 13.8624 18.3369 13.8147 18.3846C13.767 18.4323 13.7402 18.4969 13.7402 18.5643C13.7402 18.6318 13.767 18.6964 13.8147 18.7441C13.8624 18.7917 13.927 18.8185 13.9944 18.8185H14.757V20.5165H13.9944ZM19.4222 17.4612C19.3547 17.4612 19.2901 17.4344 19.2424 17.3867C19.1948 17.339 19.168 17.2744 19.168 17.207C19.168 17.1396 19.1948 17.0749 19.2424 17.0272C19.2901 16.9796 19.3547 16.9528 19.4222 16.9528H20.949C21.0164 16.9528 21.081 16.9796 21.1287 17.0272C21.1764 17.0749 21.2032 17.1396 21.2032 17.207C21.2032 17.2744 21.1764 17.339 21.1287 17.3867C21.081 17.4344 21.0164 17.4612 20.949 17.4612H20.4389V19.837H20.949C21.0164 19.837 21.081 19.8637 21.1287 19.9114C21.1764 19.9591 21.2032 20.0237 21.2032 20.0912C21.2032 20.1586 21.1764 20.2232 21.1287 20.2709C21.081 20.3186 21.0164 20.3453 20.949 20.3453H19.4222C19.3547 20.3453 19.2901 20.3186 19.2424 20.2709C19.1948 20.2232 19.168 20.1586 19.168 20.0912C19.168 20.0237 19.1948 19.9591 19.2424 19.9114C19.2901 19.8637 19.3547 19.837 19.4222 19.837H19.9305V17.4612H19.4222ZM15.9449 17.9238C15.9387 17.7422 15.9828 17.5625 16.0722 17.4043C16.1616 17.2462 16.2928 17.1157 16.4516 17.0274C16.6599 16.9123 16.894 16.852 17.1319 16.852C17.3699 16.852 17.604 16.9123 17.8123 17.0274C17.9714 17.1161 18.103 17.2471 18.1924 17.4059C18.2818 17.5647 18.3256 17.7451 18.319 17.9272V20.0912C18.319 20.1586 18.2922 20.2232 18.2445 20.2709C18.1969 20.3186 18.1322 20.3453 18.0648 20.3453C17.9974 20.3453 17.9327 20.3186 17.8851 20.2709C17.8374 20.2232 17.8106 20.1586 17.8106 20.0912V19.1574H16.4533V20.0912C16.4533 20.1586 16.4265 20.2232 16.3788 20.2709C16.3311 20.3186 16.2665 20.3453 16.1991 20.3453C16.1317 20.3453 16.067 20.3186 16.0193 20.2709C15.9717 20.2232 15.9449 20.1586 15.9449 20.0912V17.9238Z" fill="white"/>
<path d="M17.8102 17.9224C17.8156 17.8299 17.7946 17.7377 17.7496 17.6567C17.7046 17.5757 17.6374 17.5092 17.556 17.4649C17.4253 17.3956 17.2795 17.3594 17.1315 17.3594C16.9835 17.3594 16.8378 17.3956 16.707 17.4649C16.6261 17.5084 16.5592 17.574 16.5142 17.6541C16.4692 17.7343 16.4479 17.8256 16.4529 17.9173V18.6477H17.8102V17.9224Z" fill="white"/>
<path d="M18.5743 28.1403C20.3674 28.1418 22.1244 27.6366 23.6428 26.683L26.9388 29.9789C27.1378 30.178 27.3742 30.3359 27.6342 30.4436C27.8943 30.5513 28.1731 30.6068 28.4546 30.6068C28.7361 30.6068 29.0149 30.5513 29.2749 30.4436C29.535 30.3359 29.7713 30.178 29.9704 29.9789C30.1695 29.7799 30.3274 29.5435 30.4351 29.2835C30.5428 29.0234 30.5983 28.7446 30.5983 28.4631C30.5983 28.1816 30.5428 27.9028 30.4351 27.6428C30.3274 27.3827 30.1695 27.1464 29.9704 26.9473L26.6778 23.6547C27.8052 21.8571 28.3031 19.7358 28.0934 17.6244C27.8837 15.5129 26.9783 13.531 25.5194 11.9902C24.0605 10.4494 22.1309 9.43721 20.034 9.11264C17.9371 8.78807 15.7918 9.16957 13.9354 10.1972C12.079 11.2248 10.6167 12.8402 9.77845 14.7895C8.9402 16.7387 8.77354 18.9113 9.30465 20.9656C9.83577 23.0199 11.0345 24.8395 12.7125 26.1382C14.3905 27.437 16.4525 28.1412 18.5743 28.1403ZM27.9284 25.6238L25.6153 27.9369L24.0733 26.3966C24.9714 25.7636 25.7548 24.9819 26.3897 24.0852L27.9284 25.6238ZM18.5743 11.7029C19.9317 11.7029 21.2586 12.1054 22.3873 12.8595C23.5159 13.6136 24.3955 14.6855 24.915 15.9395C25.4344 17.1936 25.5703 18.5735 25.3055 19.9048C25.0407 21.2361 24.3871 22.459 23.4273 23.4188C22.4674 24.3786 21.2446 25.0323 19.9133 25.2971C18.582 25.5619 17.202 25.426 15.948 24.9065C14.6939 24.3871 13.6221 23.5074 12.8679 22.3788C12.1138 21.2502 11.7113 19.9233 11.7113 18.5659C11.7135 16.7464 12.4372 15.002 13.7238 13.7154C15.0104 12.4288 16.7548 11.705 18.5743 11.7029Z" fill="white"/>
</svg>
