<svg width="40" height="40" viewBox="0 0 40 40" fill="none" xmlns="http://www.w3.org/2000/svg">
<circle cx="20" cy="20" r="20" fill="#F0791D"/>
<path d="M29.4897 11.5204C28.926 10.9613 28.1637 10.6484 27.3697 10.6504H23.3697C23.2384 10.6504 23.1084 10.6763 22.987 10.7265C22.8657 10.7768 22.7555 10.8504 22.6626 10.9433C22.5698 11.0362 22.4961 11.1464 22.4458 11.2677C22.3956 11.389 22.3697 11.5191 22.3697 11.6504C22.3697 11.7817 22.3956 11.9118 22.4458 12.0331C22.4961 12.1544 22.5698 12.2646 22.6626 12.3575C22.7555 12.4504 22.8657 12.524 22.987 12.5743C23.1084 12.6245 23.2384 12.6504 23.3697 12.6504H26.9997L23.1197 16.5204C21.581 15.3259 19.6592 14.7338 17.715 14.8554C15.7708 14.9769 13.9378 15.8036 12.5597 17.1804C11.6303 18.1109 10.9446 19.2561 10.5633 20.5148C10.182 21.7735 10.1169 23.1067 10.3738 24.3966C10.6306 25.6864 11.2015 26.893 12.0359 27.9096C12.8703 28.9262 13.9424 29.7214 15.1574 30.2248C16.3724 30.7282 17.6928 30.9243 19.0016 30.7958C20.3105 30.6673 21.5674 30.218 22.6613 29.4879C23.7551 28.7577 24.6521 27.7691 25.2728 26.6096C25.8934 25.4502 26.2187 24.1556 26.2197 22.8404C26.2263 21.0647 25.6345 19.3385 24.5397 17.9404L28.4097 14.0604V17.6504C28.4097 17.9156 28.5151 18.17 28.7026 18.3575C28.8902 18.545 29.1445 18.6504 29.4097 18.6504C29.6749 18.6504 29.9293 18.545 30.1168 18.3575C30.3044 18.17 30.4097 17.9156 30.4097 17.6504V13.6504C30.4055 13.2521 30.3219 12.8586 30.164 12.4929C30.006 12.1272 29.7768 11.7966 29.4897 11.5204ZM22.4097 27.0704C21.2723 28.1302 19.768 28.7072 18.2135 28.6798C16.6591 28.6524 15.1761 28.0227 14.0768 26.9234C12.9774 25.8241 12.3478 24.341 12.3203 22.7866C12.2929 21.2322 12.8699 19.7278 13.9297 18.5904C14.479 18.0009 15.1414 17.5281 15.8774 17.2002C16.6134 16.8722 17.4079 16.6959 18.2135 16.6817C19.0192 16.6675 19.8194 16.8156 20.5665 17.1174C21.3136 17.4192 21.9923 17.8683 22.562 18.4381C23.1318 19.0078 23.5809 19.6865 23.8827 20.4336C24.1845 21.1807 24.3327 21.981 24.3185 22.7866C24.3042 23.5922 24.1279 24.3867 23.8 25.1227C23.472 25.8587 22.9992 26.5211 22.4097 27.0704Z" fill="white"/>
</svg>
