<svg width="40" height="40" viewBox="0 0 40 40" fill="none" xmlns="http://www.w3.org/2000/svg">
<circle cx="20" cy="20" r="20" fill="#F0791D"/>
<path d="M23.1464 15.8108C22.6132 15.5711 22.0542 15.3938 21.4804 15.2822C21.2204 11.6597 24.041 9 27.2284 9C30.4163 9 33 11.5837 33 14.7716C33 18.8373 28.4805 23.6782 27.4409 24.7377C27.7667 23.3122 27.9369 21.1737 26.6259 18.9393C29.4754 19.2984 31.44 17.0974 31.44 14.7716C31.44 12.4454 29.5542 10.56 27.2284 10.56C24.9026 10.56 22.5216 12.6875 23.1464 15.8108ZM16.8536 15.8108C17.3868 15.5711 17.9458 15.3938 18.5196 15.2822C18.78 11.6597 15.959 9 12.7716 9C9.58416 9 7 11.5837 7 14.7716C7 18.8373 11.5195 23.6782 12.5591 24.7377C12.2333 23.3122 12.0631 21.1737 13.3737 18.9393C10.5246 19.2984 8.56 17.0974 8.56 14.7716C8.56 12.4454 10.4454 10.56 12.7716 10.56C15.0974 10.56 17.478 12.6875 16.8536 15.8108ZM26.9107 22.8125C26.9107 28.3131 20 35 20 35C20 35 13.0893 28.3131 13.0893 22.8125C13.0893 18.9958 16.1833 15.9018 20 15.9018C23.8167 15.9018 26.9107 18.9958 26.9107 22.8125ZM25.0428 22.8125C25.0428 20.0277 22.7848 17.7697 20 17.7697C17.2152 17.7697 14.9572 20.0277 14.9572 22.8125C14.9572 25.5973 17.2152 27.8549 20 27.8549C22.7848 27.8549 25.0428 25.5973 25.0428 22.8125Z" fill="white"/>
</svg>
