<svg width="40" height="40" viewBox="0 0 40 40" fill="none" xmlns="http://www.w3.org/2000/svg">
<circle cx="20" cy="20" r="20" fill="#0659A9"/>
<path fill-rule="evenodd" clip-rule="evenodd" d="M15.9393 14.1522C14.952 13.7667 13.8651 13.7179 12.8472 14.0133C11.8293 14.3086 10.9373 14.9317 10.3098 15.7859C9.68217 16.64 9.35406 17.6774 9.37633 18.7371C9.3986 19.7968 9.77 20.8195 10.4329 21.6465C11.0958 22.4735 12.0132 23.0585 13.0426 23.311C14.072 23.5633 15.1559 23.4689 16.1262 23.0422C17.0964 22.6156 17.8988 21.8806 18.4086 20.9514C18.9184 20.0222 19.1074 18.9507 18.946 17.9031C18.8882 17.5278 19.1456 17.1767 19.521 17.1188C19.8963 17.0611 20.2474 17.3185 20.3053 17.6938C20.5127 19.0406 20.2699 20.4183 19.6143 21.613C18.9587 22.8077 17.9272 23.7526 16.6798 24.3012C15.4323 24.8497 14.0387 24.9711 12.7151 24.6466C11.3915 24.3222 10.2121 23.5699 9.35983 22.5066C8.50752 21.4433 8.03 20.1284 8.00137 18.766C7.97273 17.4036 8.39459 16.0698 9.20148 14.9716C10.0084 13.8734 11.1551 13.0722 12.4639 12.6925C13.7726 12.3127 15.1702 12.3755 16.4395 12.8711C16.7933 13.0092 16.9681 13.4079 16.83 13.7617C16.6919 14.1155 16.2931 14.2903 15.9393 14.1522Z" fill="white"/>
<path fill-rule="evenodd" clip-rule="evenodd" d="M13.501 30.3254V24.8244C13.501 24.4446 13.8088 24.1367 14.1886 24.1367C14.5684 24.1367 14.8762 24.4446 14.8762 24.8244V30.3254C14.8762 30.7052 14.5684 31.0131 14.1886 31.0131C13.8088 31.0131 13.501 30.7052 13.501 30.3254Z" fill="white"/>
<path fill-rule="evenodd" clip-rule="evenodd" d="M11.4375 26.8876C11.4375 26.5078 11.7454 26.1999 12.1251 26.1999H16.2509C16.6307 26.1999 16.9386 26.5078 16.9386 26.8876C16.9386 27.2673 16.6307 27.5752 16.2509 27.5752H12.1251C11.7454 27.5752 11.4375 27.2673 11.4375 26.8876ZM23.7472 14.0035C22.7272 13.7156 21.6406 13.7724 20.6562 14.1651C19.6717 14.5578 18.8444 15.2645 18.3026 16.1755C17.7608 17.0864 17.5348 18.1508 17.6598 19.2033C17.7045 19.5804 17.4351 19.9224 17.0579 19.9671C16.6808 20.0119 16.3388 19.7425 16.294 19.3654C16.1335 18.0121 16.424 16.6437 17.1206 15.4725C17.8172 14.3013 18.8809 13.3927 20.1466 12.8878C21.4124 12.3828 22.8094 12.3098 24.1208 12.68C25.4324 13.0502 26.585 13.8429 27.3999 14.9351C28.2148 16.0274 28.6464 17.3581 28.6278 18.7207C28.6091 20.0832 28.1412 21.4016 27.2967 22.4711C26.4523 23.5406 25.2783 24.3015 23.9572 24.6357C22.6361 24.9699 21.2416 24.8586 19.9901 24.3192C19.6414 24.1689 19.4805 23.7644 19.6309 23.4156C19.7812 23.0669 20.1857 22.906 20.5345 23.0563C21.5078 23.4758 22.5924 23.5623 23.62 23.3024C24.6476 23.0425 25.5605 22.4507 26.2174 21.6188C26.8742 20.787 27.2381 19.7616 27.2526 18.7018C27.2671 17.642 26.9314 16.607 26.2976 15.7575C25.6638 14.908 24.7673 14.2915 23.7472 14.0035Z" fill="white"/>
<path fill-rule="evenodd" clip-rule="evenodd" d="M26.4231 15.3409C26.1545 15.0724 26.1545 14.6369 26.4231 14.3684L31.5803 9.21117C31.8488 8.94263 32.2843 8.94263 32.5528 9.21117C32.8213 9.4797 32.8213 9.91509 32.5528 10.1836L27.3955 15.3409C27.127 15.6094 26.6916 15.6094 26.4231 15.3409Z" fill="white"/>
<path fill-rule="evenodd" clip-rule="evenodd" d="M32.0152 13.8222C31.6354 13.8174 31.3315 13.5057 31.3363 13.126L31.3708 10.3929L28.6377 10.4273C28.258 10.4321 27.9462 10.1282 27.9415 9.74843C27.9366 9.36869 28.2407 9.05697 28.6204 9.05218L32.7636 9L32.7114 13.1433C32.7066 13.523 32.3949 13.827 32.0152 13.8222Z" fill="white"/>
</svg>
