<svg width="40" height="40" viewBox="0 0 40 40" fill="none" xmlns="http://www.w3.org/2000/svg">
<circle cx="20" cy="20" r="20" fill="#F0791D"/>
<g clip-path="url(#clip0_10170_6006)">
<path d="M19.2054 8L22.4209 13.769L19.2054 19.538L14.8932 19.5487C14.4478 18.2514 12.812 17.7315 11.7112 18.5701L9 13.769L12.1981 8.04L19.2054 8ZM19.6883 13.561C19.5318 13.593 19.4141 13.7077 19.3191 13.8263C18.7681 14.509 18.3294 15.5876 17.8184 16.3275C17.6218 17.0875 18.5206 17.5208 18.9941 17.0128C19.2095 16.7822 20.4106 14.7943 20.5229 14.4916C20.7302 13.933 20.2621 13.4437 19.6896 13.5624L19.6883 13.561Z" fill="white"/>
<path d="M19.2054 20.4794L21.4539 24.5019C20.9362 25.3045 20.868 26.1671 21.4218 26.9697C21.5234 27.1164 21.6451 27.235 21.7602 27.3684L19.1653 32.0001H12.2235L9 26.2484L11.4892 21.81L11.5587 21.79C12.6555 22.7633 14.3234 22.3233 14.8718 20.9927C14.9133 20.8927 14.9775 20.4847 15.0417 20.4688L19.2054 20.4794ZM19.6388 26.0391C19.5171 26.0671 19.3673 26.2258 19.2897 26.3244C18.7493 27.0164 18.3294 28.0657 17.8184 28.8056C17.6298 29.5349 18.4524 29.9802 18.9941 29.4909C19.3686 28.715 20.2086 27.7723 20.5069 27.0031C20.7409 26.4004 20.2661 25.8964 19.6375 26.0391H19.6388Z" fill="white"/>
<path d="M28.9398 13.9883C28.7352 15.6642 30.4753 16.8215 31.9693 16.0842L33.9997 19.792L30.7883 25.533L25.1773 25.5383C25.0649 24.3717 23.9361 23.5371 22.7884 23.7291L20.6337 19.904L20.6016 19.74L23.817 13.9989L28.9398 13.9883ZM31.322 19.5573C31.1842 19.5813 31.0157 19.6893 30.922 19.7933C30.7027 20.0373 29.5805 21.9092 29.4521 22.2278C29.119 23.0584 30.0874 23.6251 30.6492 22.9345C30.9341 22.5838 31.9065 20.9679 32.0763 20.5546C32.3077 19.9906 31.9292 19.4533 31.3206 19.5573H31.322Z" fill="white"/>
<path d="M30.8845 13.0749C32.4548 12.927 32.5979 15.3202 31.0597 15.3988C29.5215 15.4775 29.4052 13.2149 30.8845 13.0749Z" fill="white"/>
<path d="M12.8511 19.0679C14.3304 18.9639 14.5404 21.2691 13.0317 21.3971C11.4868 21.5291 11.3397 19.1745 12.8511 19.0679Z" fill="white"/>
<path d="M22.9653 24.6278C23.8066 24.5158 24.474 25.3104 24.2239 26.1264C23.8668 27.2943 22.1119 27.1423 21.9621 25.893C21.8912 25.2944 22.3634 24.7078 22.9653 24.6264V24.6278Z" fill="white"/>
</g>
<defs>
<clipPath id="clip0_10170_6006">
<rect width="25" height="24" fill="white" transform="translate(9 8)"/>
</clipPath>
</defs>
</svg>
