<svg width="40" height="40" viewBox="0 0 40 40" fill="none" xmlns="http://www.w3.org/2000/svg">
<circle cx="20" cy="20" r="20" fill="#0659A9"/>
<path fill-rule="evenodd" clip-rule="evenodd" d="M18.9983 8.90067C19.2279 8.90067 19.4135 8.72238 19.4135 8.50091V6.40044C19.4135 6.17937 19.2279 6 18.9983 6C18.7694 6 18.5834 6.17937 18.5834 6.40044V8.50097C18.5834 8.72238 18.7694 8.90067 18.9983 8.90067ZM15.768 9.44368C15.845 9.57141 15.9844 9.64354 16.1278 9.64354C16.4414 9.64354 16.6483 9.3128 16.4869 9.04324L15.3979 7.22322C15.2827 7.03223 15.0292 6.96676 14.8304 7.07676C14.632 7.1875 14.5638 7.43261 14.6789 7.62434L15.768 9.44368ZM11.931 10.5668L13.8177 11.6171C13.8834 11.6535 13.9546 11.6709 14.025 11.6709C14.446 11.6709 14.5997 11.1276 14.2329 10.9234L12.3462 9.87353C12.1477 9.76279 11.8939 9.82826 11.7795 10.02C11.6647 10.2113 11.7329 10.4558 11.931 10.5668ZM24.1795 11.6171L26.0658 10.5668C26.2639 10.4557 26.3325 10.2113 26.2177 10.0199C26.1032 9.82815 25.8494 9.76308 25.6506 9.87342L23.7643 10.9234C23.5662 11.0345 23.4983 11.2786 23.6124 11.471C23.7291 11.6634 23.9814 11.7271 24.1795 11.6171ZM21.6626 9.58981C21.8592 9.69947 22.1137 9.63614 22.2293 9.44368L23.3182 7.6244C23.4327 7.43267 23.3652 7.1875 23.1668 7.07682C22.968 6.96682 22.7142 7.03223 22.5997 7.22328L21.5103 9.0433C21.3959 9.23429 21.4642 9.47907 21.6626 9.58981ZM30.9889 17.8925L30.9691 17.2459L30.3892 17.5717C28.8263 18.4508 27.2246 19.2696 25.6914 20.1965C23.8361 21.3179 22.3517 22.8252 21.2847 24.6685L21.273 24.6912C20.6821 25.8858 20.2075 27.1391 19.8803 28.4253C19.8768 28.4386 19.8575 28.4418 19.8499 28.4278C19.0837 26.7899 17.366 25.4772 15.8182 24.5507C14.1472 23.5502 11.7078 22.4701 9.78892 21.9758L9.40637 21.8775L9.30144 22.2454C8.77031 24.1008 8.94014 25.9303 9.81824 27.6594C10.9487 29.8852 12.5482 31.5011 15.1576 31.8952C16.1636 32.0472 16.7612 32.0056 17.7229 31.9461L17.4321 31.419C16.0445 28.9039 14.3125 26.6629 12.1016 24.7658C12.0873 24.7536 12.1054 24.7318 12.1206 24.741C13.4096 25.4952 14.6617 26.2911 15.8465 27.1917C17.2106 28.2285 18.4576 29.3832 19.5624 30.6779L19.8631 31.0309L28.8054 21.0087C28.8177 20.9946 28.841 21.0094 28.8307 21.0263L22.2043 31.9585C23.5814 31.5261 24.5284 31.2527 25.8374 30.5021C28.7981 28.8045 29.4887 27.173 30.307 24.0622C30.8374 22.0483 31.0535 19.9687 30.9889 17.8925ZM18.9978 14.8489C20.1969 14.8489 21.1729 13.9086 21.1729 12.7529C21.1729 11.5962 20.1969 10.656 18.9978 10.656C17.7992 10.656 16.8243 11.5962 16.8243 12.7529C16.8243 13.9086 17.7992 14.8489 18.9978 14.8489ZM10.4099 16.9137C10.5625 16.3329 11.2285 16.0983 11.7843 16.2816L11.8059 16.2891C14.9289 17.438 16.2042 15.5896 19.1112 15.6442C21.037 15.6803 22.2827 16.5228 23.8218 16.6524C24.6695 16.7236 25.4118 16.5714 26.2012 16.2852L26.2118 16.2816C26.7679 16.0977 27.434 16.3322 27.5873 16.9134C27.7392 17.4907 27.2814 17.9177 26.7577 18.0843C26.0087 18.3592 25.1904 18.4982 24.3911 18.5244C23.1455 18.5652 22.6957 18.2655 21.6689 18.1402C21.5599 18.1268 21.4382 18.2074 21.4367 18.3185L21.3835 22.5713C20.9936 23.0686 20.6382 23.595 20.3176 24.149L20.274 24.2307C19.9835 24.8176 19.7194 25.4179 19.4861 26.0292C18.6542 25.1512 17.6389 24.4034 16.6351 23.7843L16.5602 18.319C16.5591 18.2082 16.4373 18.1276 16.3281 18.1403C15.3144 18.2604 14.8622 18.5656 13.6061 18.5245C12.8047 18.4983 11.9842 18.3586 11.2345 18.0827C10.7125 17.9145 10.2588 17.4892 10.4099 16.9137Z" fill="white"/>
</svg>
