<svg width="40" height="40" viewBox="0 0 40 40" fill="none" xmlns="http://www.w3.org/2000/svg">
<circle cx="20" cy="20" r="20" fill="#F0791D"/>
<path d="M27.1429 10H12.8571C11.2793 10 10 11.2793 10 12.8571V27.1429C10 28.7207 11.2793 30 12.8571 30H27.1429C28.7207 30 30 28.7207 30 27.1429V12.8571C30 11.2793 28.7207 10 27.1429 10ZM14.3043 16.6457C14.8814 14.0314 17.2121 12.0757 20 12.0757C22.7879 12.0757 25.1186 14.0314 25.6957 16.645C25.8386 17.2921 25.3464 17.9086 24.6836 17.9086H15.3157C14.6529 17.9093 14.1607 17.2929 14.3043 16.6457ZM27.1429 26.6221C27.1429 27.3414 26.56 27.9243 25.8407 27.9243H14.1593C13.44 27.9243 12.8571 27.3414 12.8571 26.6221V21.5029C12.8571 20.7836 13.44 20.2007 14.1593 20.2007H25.8407C26.56 20.2007 27.1429 20.7836 27.1429 21.5029V26.6221Z" fill="white"/>
<path d="M20.3043 15.9423V14.0809C20.3043 13.9131 20.1685 13.7773 20.0007 13.7773C19.8328 13.7773 19.6971 13.9131 19.6971 14.0809V15.9423C18.9471 16.0581 18.3414 16.5938 18.1143 17.3009H21.8871C21.66 16.5931 21.0535 16.0573 20.3043 15.9423Z" fill="white"/>
</svg>
