<svg width="40" height="40" viewBox="0 0 40 40" fill="none" xmlns="http://www.w3.org/2000/svg">
<circle cx="20" cy="20" r="20" fill="#0659A9"/>
<path d="M7.26758 16.9839C7.26758 16.9839 7.90825 17.5711 8.06841 17.8381C10.2574 20.7745 10.0972 25.6863 14.6887 23.9244C14.8488 23.8711 15.1158 23.7643 15.3827 23.6575C14.4751 22.91 13.4073 21.7889 12.7133 20.1338C12.7133 20.1338 14.2082 22.3228 15.7564 23.3906C15.8098 23.2838 15.8632 23.2304 15.8632 23.0702C16.931 16.3966 7.26758 16.9839 7.26758 16.9839ZM28.5164 24.0312C28.5164 24.0312 28.0893 24.5651 27.9826 24.7787C26.5944 27.3947 27.2351 31.2388 23.3911 30.3845C23.2309 30.3311 23.0174 30.2777 22.8038 30.2244C23.4445 29.5303 24.1919 28.5159 24.5123 27.1278C24.5123 27.1278 23.5513 29.0498 22.4301 30.0642C22.3767 30.0108 22.3233 29.904 22.3233 29.8506C20.7216 24.6719 28.5164 24.0312 28.5164 24.0312ZM13.1404 26.3803C13.1404 26.3803 13.4073 26.7541 13.5141 26.9142C14.4751 28.6761 13.9946 31.3455 16.6641 30.7582C16.7708 30.7582 16.931 30.7049 17.0378 30.6515C16.6107 30.171 16.0768 29.4769 15.8632 28.5159C15.8632 28.5159 16.5039 29.7972 17.3047 30.5447C17.3581 30.4913 17.3581 30.4379 17.4115 30.3845C18.4793 26.8075 13.1404 26.3803 13.1404 26.3803ZM29.1037 18.1584C29.1037 18.1584 28.8368 18.5321 28.73 18.6389C27.8224 20.3474 28.2495 22.91 25.7402 22.3228C25.6334 22.3228 25.4733 22.2694 25.3665 22.216C25.7936 21.7889 26.2741 21.0948 26.4877 20.1872C26.4877 20.1872 25.847 21.4152 25.0995 22.1092C25.0462 22.0558 25.0462 22.0024 24.9928 21.949C23.9784 18.5855 29.1037 18.1584 29.1037 18.1584Z" fill="white"/>
<path d="M19.5464 16.8769C18.8524 15.7558 13.9406 8.01436 7 10.1499C7 10.1499 18.7456 16.2363 19.3329 32.1996H19.76C20.3473 16.2363 32.0929 10.1499 32.0929 10.1499C25.1523 8.01436 20.2405 15.7558 19.5464 16.8769Z" fill="white"/>
<path d="M19.5467 12.5525C21.08 12.5525 22.323 11.3095 22.323 9.77623C22.323 8.24296 21.08 7 19.5467 7C18.0135 7 16.7705 8.24296 16.7705 9.77623C16.7705 11.3095 18.0135 12.5525 19.5467 12.5525Z" fill="white"/>
</svg>
