<svg width="40" height="40" viewBox="0 0 40 40" fill="none" xmlns="http://www.w3.org/2000/svg">
<circle cx="20" cy="20" r="20" fill="#F0791D"/>
<path d="M14.1005 11.7694H24.4256C24.7132 11.7694 24.9101 11.4779 24.8038 11.2139L24.0159 9.25606C23.9529 9.10242 23.8032 9 23.6377 9H14.8883C14.7229 9 14.5732 9.10242 14.5101 9.25606L13.7223 11.2139C13.6159 11.4818 13.8129 11.7694 14.1005 11.7694ZM23.3974 18.3561C23.6811 18.3561 23.9135 18.1276 23.9135 17.8439V12.5612H14.6165V17.8479C14.6165 18.1315 14.845 18.36 15.1326 18.36H15.8771V14.6373C15.8771 14.3852 16.082 14.1764 16.338 14.1764H18.422C18.6741 14.1764 18.8789 14.3812 18.8789 14.6373V18.36H23.3974V18.3561ZM20.0056 14.2158H22.9838V15.9373H20.0056V14.2158ZM17.3189 21.5982C17.2559 21.4445 17.1062 21.3421 16.9408 21.3421H8.1953C8.02985 21.3421 7.88015 21.4445 7.81712 21.5982L7.02924 23.5561C6.92288 23.8239 7.11985 24.1115 7.40742 24.1115H17.7326C18.0201 24.1115 18.2171 23.82 18.1108 23.5561L17.3189 21.5982ZM7.91954 30.1861C7.91954 30.4697 8.14803 30.6982 8.4356 30.6982H9.18015V26.9755C9.18015 26.7233 9.385 26.5145 9.64106 26.5145H11.725C11.9771 26.5145 12.182 26.7194 12.182 26.9755V30.6982H16.7083C16.992 30.6982 17.2244 30.4697 17.2244 30.1861V24.8994H7.91954V30.1861ZM13.3126 26.5579H16.2908V28.2794H13.3126V26.5579ZM32.1823 23.5521L31.3944 21.5942C31.3314 21.4406 31.1817 21.3382 31.0162 21.3382H22.2708C22.1053 21.3382 21.9556 21.4406 21.8926 21.5942L21.1047 23.5521C20.9983 23.82 21.1953 24.1076 21.4829 24.1076H31.808C32.0956 24.1115 32.2926 23.82 32.1823 23.5521ZM21.9989 30.1861C21.9989 30.4697 22.2274 30.6982 22.515 30.6982H23.2595V26.9755C23.2595 26.7233 23.4644 26.5145 23.7204 26.5145H25.8044C26.0565 26.5145 26.2614 26.7194 26.2614 26.9755V30.6982H30.7877C31.0714 30.6982 31.3038 30.4697 31.3038 30.1861V24.8994H22.0068V30.1861H21.9989ZM27.388 26.5579H30.3662V28.2794H27.388V26.5579ZM28.7629 20.5542H29.3577V18.7855L29.0623 19.1006L28.7629 18.7894V20.5542ZM31.4692 14.0582C31.4692 13.4188 31.2152 12.8055 30.7631 12.3534C30.311 11.9013 29.6977 11.6473 29.0583 11.6473C27.7268 11.6473 26.6435 12.7267 26.6435 14.0582C26.6435 15.3897 29.0583 17.9503 29.0583 17.9503C29.0583 17.9503 31.4692 15.3936 31.4692 14.0582ZM27.975 13.8888C27.975 13.29 28.4595 12.8055 29.0583 12.8055C29.6571 12.8055 30.1417 13.29 30.1417 13.8888C30.1417 14.4876 29.6571 14.9721 29.0583 14.9721C28.9159 14.9725 28.7749 14.9448 28.6433 14.8905C28.5116 14.8362 28.392 14.7564 28.2914 14.6557C28.1907 14.5551 28.1109 14.4355 28.0566 14.3039C28.0023 14.1722 27.9746 14.0312 27.975 13.8888ZM24.7014 13.9203V14.5112H25.9108C25.8753 14.3536 25.8556 14.2039 25.8556 14.0582C25.8556 14.0109 25.8556 13.9676 25.8595 13.9203H24.7014ZM9.14075 18.7855V20.5542H9.73166V18.7894L9.43621 19.1006L9.14075 18.7855ZM11.8511 14.0582C11.8511 12.7267 10.7717 11.6473 9.43621 11.6473C8.7968 11.6473 8.18357 11.9013 7.73144 12.3534C7.27931 12.8055 7.0253 13.4188 7.0253 14.0582C7.0253 15.3897 9.43621 17.9503 9.43621 17.9503C9.43621 17.9503 11.8511 15.3936 11.8511 14.0582ZM8.35288 13.8888C8.35288 13.29 8.83742 12.8055 9.43621 12.8055C10.035 12.8055 10.5195 13.29 10.5195 13.8888C10.5195 14.4876 10.035 14.9721 9.43621 14.9721C9.29383 14.9725 9.15277 14.9448 9.02114 14.8905C8.88952 14.8362 8.76993 14.7564 8.66925 14.6557C8.56857 14.5551 8.48879 14.4355 8.43449 14.3039C8.3802 14.1722 8.35246 14.0312 8.35288 13.8888ZM13.7932 14.5112V13.9203H12.635C12.6389 13.9676 12.6389 14.0109 12.6389 14.0582C12.6389 14.2039 12.6192 14.3536 12.5838 14.5112H13.7932Z" fill="white"/>
</svg>
