<svg width="30" height="30" viewBox="0 0 30 30" fill="none" xmlns="http://www.w3.org/2000/svg">
<path d="M14.9997 0C6.72859 0 0 6.72886 0 14.9997C0 23.2709 6.72859 30 14.9997 30C23.2703 30 29.9995 23.2709 29.9995 14.9997C29.9995 6.72886 23.2703 0 14.9997 0ZM19.2391 9.46903C19.2391 9.54006 19.2109 9.60818 19.1606 9.6584C19.1104 9.70862 19.0423 9.73684 18.9713 9.73684L17.2662 9.73791C16.1411 9.73791 15.9354 10.176 15.9354 11.0389V12.8289H18.8599C18.9367 12.8289 19.0101 12.8621 19.0607 12.92C19.1113 12.9778 19.1349 13.0547 19.1255 13.131L18.7091 16.3535C18.7008 16.418 18.6692 16.4774 18.6203 16.5203C18.5714 16.5633 18.5085 16.587 18.4434 16.587H15.9354V24.5887C15.9354 24.6598 15.9072 24.7279 15.857 24.7781C15.8068 24.8283 15.7387 24.8565 15.6676 24.8565H12.3404C12.2694 24.8565 12.2013 24.8283 12.1511 24.7781C12.1008 24.7279 12.0726 24.6598 12.0726 24.5887V16.587H9.5566C9.48558 16.587 9.41746 16.5588 9.36724 16.5086C9.31701 16.4583 9.2888 16.3902 9.2888 16.3192V13.0967C9.2888 13.0257 9.31701 12.9576 9.36724 12.9073C9.41746 12.8571 9.48558 12.8289 9.5566 12.8289H12.0726V10.7199C12.0726 7.92675 13.763 6.19191 16.4847 6.19191C17.6547 6.19191 18.6887 6.27894 19.0064 6.32099C19.0707 6.3295 19.1298 6.3611 19.1726 6.40992C19.2154 6.45874 19.2391 6.52145 19.2391 6.58638V9.46903Z" fill="white"/>
</svg>
