<svg width="30" height="30" viewBox="0 0 30 30" fill="none" xmlns="http://www.w3.org/2000/svg">
<path d="M16.4925 13.2691H16.5155V13.233L16.4925 13.2691ZM16.4925 13.2691H16.5155V13.233L16.4925 13.2691ZM16.4925 13.2691H16.5155V13.233L16.4925 13.2691ZM16.4925 13.2691H16.5155V13.233L16.4925 13.2691ZM16.4925 13.2691H16.5155V13.233L16.4925 13.2691ZM16.4925 13.2691H16.5155V13.233L16.4925 13.2691ZM16.4925 13.2691H16.5155V13.233L16.4925 13.2691ZM16.4925 13.2691H16.5155V13.233L16.4925 13.2691ZM16.4925 13.2691H16.5155V13.233L16.4925 13.2691ZM16.4925 13.2691H16.5155V13.233L16.4925 13.2691ZM16.4925 13.2691H16.5155V13.233L16.4925 13.2691ZM16.4925 13.2691H16.5155V13.233L16.4925 13.2691ZM16.4925 13.2691H16.5155V13.233L16.4925 13.2691ZM16.4925 13.2691H16.5155V13.233L16.4925 13.2691ZM16.4925 13.2691H16.5155V13.233L16.4925 13.2691ZM16.4925 13.2691H16.5155V13.233L16.4925 13.2691ZM14.9981 0C12.0313 0 9.13124 0.879734 6.6645 2.52796C4.19776 4.17618 2.27517 6.51886 1.13986 9.25975C0.00454596 12.0006 -0.292504 15.0166 0.286274 17.9263C0.865053 20.8361 2.29366 23.5088 4.39145 25.6066C6.48924 27.7044 9.16198 29.133 12.0717 29.7118C14.9814 30.2906 17.9974 29.9935 20.7383 28.8582C23.4792 27.7229 25.8219 25.8003 27.4701 23.3335C29.1183 20.8668 29.998 17.9667 29.998 15C29.9937 11.0231 28.412 7.2103 25.5998 4.3982C22.7877 1.58609 18.975 0.00434683 14.9981 0ZM11.2472 21.7528C11.2464 21.8193 11.2193 21.8828 11.172 21.9295C11.1247 21.9762 11.0608 22.0024 10.9943 22.0024H8.10403C8.03783 22.0024 7.97434 21.9761 7.92752 21.9293C7.88071 21.8825 7.85441 21.819 7.85441 21.7528V12.0407C7.85398 12.0077 7.86011 11.9749 7.87246 11.9442C7.88481 11.9135 7.90313 11.8856 7.92635 11.8621C7.94957 11.8386 7.97724 11.8199 8.00774 11.8071C8.03824 11.7944 8.07097 11.7878 8.10403 11.7878H10.9943C11.0275 11.7878 11.0604 11.7944 11.0911 11.8071C11.1218 11.8198 11.1497 11.8384 11.1732 11.8619C11.1966 11.8854 11.2153 11.9133 11.228 11.9439C11.2407 11.9746 11.2472 12.0075 11.2472 12.0407V21.7528ZM9.44736 10.4905C9.08813 10.4905 8.73697 10.3839 8.43828 10.1844C8.1396 9.9848 7.9068 9.70113 7.76933 9.36925C7.63186 9.03736 7.59589 8.67217 7.66597 8.31984C7.73605 7.96752 7.90904 7.64388 8.16305 7.38987C8.41706 7.13586 8.7407 6.96287 9.09302 6.89279C9.44535 6.82271 9.81054 6.85868 10.1424 6.99615C10.4743 7.13362 10.758 7.36642 10.9576 7.66511C11.1571 7.96379 11.2637 8.31495 11.2637 8.67418C11.2641 8.91282 11.2174 9.1492 11.1263 9.36976C11.0352 9.59032 10.9014 9.79071 10.7326 9.95946C10.5639 10.1282 10.3635 10.262 10.1429 10.3531C9.92238 10.4442 9.686 10.4909 9.44736 10.4905ZM23.4785 21.7528C23.4776 21.8193 23.4506 21.8828 23.4032 21.9295C23.3559 21.9762 23.2921 22.0024 23.2255 22.0024H20.3353C20.3025 22.0024 20.27 21.9959 20.2397 21.9834C20.2094 21.9709 20.1819 21.9525 20.1587 21.9293C20.1356 21.9061 20.1172 21.8786 20.1046 21.8483C20.0921 21.818 20.0856 21.7856 20.0856 21.7528V16.5338C20.0856 15.1609 19.5963 14.2347 18.3679 14.2347C17.9851 14.2369 17.6124 14.3573 17.3007 14.5796C16.9891 14.8018 16.7538 15.115 16.6271 15.4762C16.5405 15.7432 16.5027 16.0236 16.5155 16.3039V21.7528C16.5155 21.8199 16.4888 21.8842 16.4414 21.9316C16.394 21.979 16.3296 22.0057 16.2626 22.0057H13.3723C13.3392 22.0057 13.3065 21.9991 13.276 21.9864C13.2455 21.9736 13.2178 21.9549 13.1946 21.9314C13.1714 21.9079 13.153 21.88 13.1407 21.8493C13.1283 21.8187 13.1222 21.7858 13.1226 21.7528C13.1226 20.3668 13.1588 13.637 13.1226 12.0539C13.1222 12.0208 13.1283 11.988 13.1407 11.9573C13.153 11.9267 13.1714 11.8988 13.1946 11.8752C13.2178 11.8517 13.2455 11.833 13.276 11.8203C13.3065 11.8075 13.3392 11.801 13.3723 11.801H16.256C16.2893 11.8005 16.3224 11.8068 16.3533 11.8193C16.3842 11.8319 16.4122 11.8505 16.4358 11.874C16.4594 11.8976 16.478 11.9257 16.4905 11.9566C16.5031 11.9874 16.5093 12.0205 16.5089 12.0539V13.2461C16.8161 12.7128 17.2635 12.2738 17.8026 11.9768C18.3416 11.6798 18.9517 11.536 19.5667 11.5612C21.7968 11.5612 23.4719 13.0195 23.4719 16.1594L23.4785 21.7528ZM16.5155 13.279V13.2428L16.4925 13.279H16.5155ZM16.4925 13.279H16.5155V13.2428L16.4925 13.279ZM16.4925 13.279H16.5155V13.2428L16.4925 13.279ZM16.4925 13.279H16.5155V13.2428L16.4925 13.279ZM16.4925 13.279H16.5155V13.2428L16.4925 13.279ZM16.4925 13.279H16.5155V13.2428L16.4925 13.279ZM16.4925 13.279H16.5155V13.2428L16.4925 13.279ZM16.4925 13.279H16.5155V13.2428L16.4925 13.279ZM16.4925 13.279H16.5155V13.2428L16.4925 13.279ZM16.4925 13.279H16.5155V13.2428L16.4925 13.279ZM16.4925 13.279H16.5155V13.2428L16.4925 13.279ZM16.4925 13.279H16.5155V13.2428L16.4925 13.279ZM16.4925 13.279H16.5155V13.2428L16.4925 13.279ZM16.4925 13.279H16.5155V13.2428L16.4925 13.279ZM16.4925 13.279H16.5155V13.2428L16.4925 13.279Z" fill="white"/>
</svg>
