<svg width="30" height="30" viewBox="0 0 30 30" fill="none" xmlns="http://www.w3.org/2000/svg">
<path d="M14.9995 0C6.72886 0 0 6.72886 0 14.9997C0 23.2709 6.72886 30 14.9995 30C23.2706 30 29.9995 23.2709 29.9995 14.9997C29.9992 6.72886 23.2703 0 14.9995 0ZM22.9827 11.0876C22.585 11.6832 22.0904 12.208 21.5194 12.6404C21.5218 12.7274 21.5235 12.8144 21.5235 12.9015C21.5235 17.2758 18.1949 21.8004 12.6246 21.8004C10.9247 21.8012 9.26038 21.3137 7.82953 20.396C7.77852 20.3634 7.74009 20.3145 7.72053 20.2572C7.70097 20.2 7.70144 20.1378 7.72188 20.0808C7.74176 20.0235 7.78067 19.9748 7.83213 19.9427C7.8836 19.9106 7.9445 19.8972 8.00468 19.9046C8.23954 19.9316 8.47226 19.945 8.69668 19.945C9.78933 19.945 10.8306 19.6512 11.7446 19.0899C11.1941 18.957 10.6871 18.6847 10.2724 18.2991C9.85765 17.9135 9.54918 17.4276 9.37664 16.8883C9.36251 16.844 9.36012 16.7968 9.3697 16.7513C9.37928 16.7058 9.40049 16.6636 9.43127 16.6288C9.46206 16.5939 9.50146 16.5677 9.54554 16.5528C9.58962 16.5379 9.63683 16.5348 9.68247 16.5439C9.73282 16.5535 9.78344 16.5618 9.83378 16.5688C8.9037 15.9761 8.30033 14.9341 8.30033 13.7804V13.7421C8.30036 13.6955 8.31254 13.6497 8.33569 13.6093C8.35883 13.5688 8.39214 13.5351 8.4323 13.5115C8.47247 13.4878 8.51811 13.4751 8.56471 13.4745C8.61131 13.4739 8.65727 13.4855 8.69802 13.5081C8.81452 13.5726 8.9353 13.6286 9.05929 13.6757C8.58338 13.0875 8.32412 12.3536 8.32497 11.597C8.32497 11.0137 8.47949 10.4396 8.77167 9.93689C8.79341 9.89942 8.82392 9.86778 8.86058 9.84469C8.89724 9.8216 8.93895 9.80775 8.98214 9.80433C9.02533 9.8009 9.0687 9.80801 9.10854 9.82503C9.14838 9.84206 9.18349 9.86849 9.21087 9.90207C10.6353 11.6487 12.706 12.7475 14.9333 12.95C14.9175 12.8173 14.9097 12.6838 14.9098 12.5501C14.9098 10.7299 16.391 9.2489 18.2115 9.2489C19.0704 9.2489 19.9014 9.58767 20.5144 10.1827C21.1135 10.0494 21.6876 9.82166 22.2152 9.50813C22.2284 9.46681 22.2514 9.42931 22.2822 9.39884C22.3131 9.36837 22.3509 9.34586 22.3924 9.33322C22.4338 9.32059 22.4778 9.31823 22.5204 9.32633C22.563 9.33443 22.603 9.35275 22.6369 9.37973C22.6709 9.4067 22.6978 9.44152 22.7153 9.48118C22.7328 9.52085 22.7405 9.56418 22.7376 9.60745C22.7346 9.65072 22.7213 9.69263 22.6986 9.72958C22.6759 9.76653 22.6445 9.79742 22.6073 9.81959C22.4761 10.2307 22.2649 10.6119 21.9859 10.9412C22.2129 10.8726 22.4353 10.79 22.652 10.6937C22.705 10.6703 22.7643 10.6647 22.8208 10.6778C22.8773 10.691 22.928 10.7221 22.9653 10.7665C23.0026 10.8109 23.0244 10.8662 23.0276 10.9242C23.0307 10.9821 23.015 11.0394 22.9827 11.0876Z" fill="white"/>
</svg>
