<svg width="30" height="30" viewBox="0 0 30 30" fill="none" xmlns="http://www.w3.org/2000/svg">
<path d="M14.7599 11.4438C15.0543 11.4438 15.1951 11.2108 15.1951 10.7454V8.62732C15.1951 8.16134 15.0543 7.92969 14.7599 7.92969C14.4654 7.92969 14.3242 8.16134 14.3242 8.62732V10.7454C14.3242 11.2108 14.4654 11.4438 14.7599 11.4438Z" fill="white"/>
<path d="M14.9988 0C6.72788 0 -0.000976562 6.72886 -0.000976562 14.9997C-0.000976562 23.2709 6.72788 30 14.9988 30C23.2699 30 29.9988 23.2709 29.9988 14.9997C29.9985 6.72886 23.2696 0 14.9988 0ZM22.9716 18.6108C22.9716 19.7626 22.9716 21.0682 22.6963 22.2615C22.4643 23.2725 21.6299 24.028 20.6194 24.1415C18.8806 24.3357 17.1184 24.3515 15.3153 24.3515H14.6185C12.8153 24.3515 11.0532 24.3354 9.31407 24.1415C8.30364 24.028 7.4689 23.2725 7.23778 22.2618C6.96408 21.0717 6.96408 19.8207 6.96408 18.6108C6.96408 17.4627 6.96408 16.1615 7.24046 14.9596C7.47291 13.9483 8.30766 13.1929 9.31728 13.0801C11.058 12.8851 12.7912 12.8696 14.7143 12.8696H15.2256C17.1482 12.8696 18.8814 12.8854 20.6218 13.0801C21.6323 13.1929 22.467 13.9481 22.6989 14.9598C22.9713 16.1457 22.9713 17.3899 22.9713 18.5931V18.6108H22.9716ZM14.7601 7.10807C15.2173 7.10807 15.5716 7.28053 15.8247 7.62439C16.0159 7.87908 16.1083 8.27221 16.1083 8.80997V10.5735C16.1083 11.1088 16.0159 11.5052 15.8247 11.758C15.5719 12.1007 15.2173 12.2732 14.7601 12.2732C14.3062 12.2732 13.9503 12.1007 13.6983 11.758C13.5036 11.5052 13.4125 11.1088 13.4125 10.5735V8.80997C13.4125 8.27221 13.5039 7.87908 13.6983 7.62439C13.95 7.28027 14.3062 7.10807 14.7601 7.10807ZM10.5572 7.33008C10.3443 6.70368 10.1218 6.07381 9.90886 5.44822H10.9737L11.6916 8.10082L12.3815 5.44822H13.4056H13.4042L12.1871 9.46716V12.203H11.1753V9.46716C11.084 8.98216 10.8813 8.27195 10.5572 7.33008ZM17.7788 11.2301C17.7984 11.3715 17.8696 11.4438 17.9925 11.4438C18.1747 11.4438 18.3664 11.3024 18.5689 11.0167V7.16939H19.481V12.203H18.5689V11.6535C18.2054 12.0705 17.8592 12.2727 17.5266 12.2727C17.2325 12.2727 17.0301 12.1532 16.9395 11.898C16.8889 11.7462 16.8581 11.5046 16.8581 11.1498V7.16939H17.7676V10.875C17.7676 11.0893 17.7676 11.2004 17.7788 11.2301Z" fill="white"/>
<path d="M10.6791 21.8423V16.0981H11.7608V15.1562H8.61328V16.0981H9.67513V21.8423H10.6791ZM19.9792 16.8C19.5188 16.8 19.1586 16.969 18.8986 17.3107C18.706 17.5622 18.6198 17.9519 18.6198 18.4848V20.2298C18.6198 20.7582 18.7175 21.1519 18.9096 21.4004C19.1701 21.7408 19.5293 21.9114 20.0027 21.9114C20.4735 21.9114 20.8439 21.7325 21.0938 21.3709C21.2041 21.2089 21.2759 21.0239 21.304 20.83C21.3126 20.7389 21.3238 20.5386 21.3238 20.2483V20.1168H20.4023C20.4023 20.4791 20.3916 20.6784 20.383 20.7274C20.3313 20.9689 20.2015 21.09 19.9792 21.09C19.6701 21.09 19.5188 20.8605 19.5188 20.3985V19.5161H21.3238V18.4845C21.3238 17.9516 21.233 17.5622 21.044 17.3105C20.7914 16.969 20.4323 16.8 19.9792 16.8ZM20.4213 18.7644H19.5191V18.3038C19.5191 17.8431 19.6701 17.6123 19.9719 17.6123C20.27 17.6123 20.4213 17.8431 20.4213 18.3038V18.7644ZM14.4881 21.8423V16.8606H13.5843V20.6682C13.385 20.9502 13.1946 21.0903 13.0136 21.0903C12.8928 21.0903 12.8242 21.019 12.8023 20.8795C12.7942 20.8503 12.7942 20.7394 12.7942 20.5284V16.8606H11.892V20.8C11.892 21.1519 11.922 21.3889 11.9718 21.5407C12.0615 21.7932 12.2621 21.9116 12.5535 21.9116C12.885 21.9116 13.2262 21.7108 13.5845 21.2994V21.8425L14.4881 21.8423ZM15.2696 15.1562V21.8423H16.1718V21.3594C16.4733 21.7325 16.7829 21.9114 17.104 21.9114C17.464 21.9114 17.7052 21.722 17.8255 21.3511C17.8857 21.1403 17.9165 20.8085 17.9165 20.3479V18.3635C17.9165 17.8924 17.8857 17.5625 17.8255 17.3619C17.7052 16.9888 17.4637 16.8 17.104 16.8C16.7727 16.8 16.4634 16.9821 16.1718 17.3399V15.1565L15.2696 15.1562ZM16.6217 17.6123C16.8823 17.6123 17.0146 17.8431 17.0146 18.2922V20.4189C17.0146 20.8688 16.8823 21.09 16.6217 21.09C16.4733 21.09 16.3226 21.0188 16.1718 20.8688V17.8319C16.3226 17.6835 16.4733 17.6123 16.6217 17.6123Z" fill="white"/>
</svg>
