<svg width="30" height="30" viewBox="0 0 30 30" fill="none" xmlns="http://www.w3.org/2000/svg">
<path d="M21.0887 10.3922C20.9585 10.0551 20.7592 9.74897 20.5035 9.49358C20.2479 9.23819 19.9415 9.03918 19.6043 8.90938C19.1399 8.73738 18.6495 8.64648 18.1543 8.64063C17.3309 8.60313 17.084 8.59375 14.998 8.59375C12.9121 8.59375 12.6652 8.60313 11.8418 8.64063C11.3461 8.6463 10.8551 8.73721 10.3902 8.90938C10.0531 9.03954 9.74701 9.23887 9.49162 9.49452C9.23623 9.75018 9.03723 10.0565 8.90742 10.3937C8.73543 10.8581 8.64452 11.3486 8.63867 11.8437C8.60117 12.6672 8.5918 12.9141 8.5918 15C8.5918 17.0859 8.60117 17.3328 8.63867 18.1562C8.64435 18.6519 8.73525 19.1429 8.90742 19.6078C9.03758 19.9449 9.23691 20.251 9.49257 20.5064C9.74823 20.7618 10.0545 20.9608 10.3918 21.0906C10.8562 21.2626 11.3466 21.3535 11.8418 21.3594C12.6652 21.3969 12.9121 21.4062 14.998 21.4062C17.084 21.4062 17.3309 21.3969 18.1543 21.3594C18.65 21.3537 19.141 21.2628 19.6059 21.0906C19.943 20.9605 20.2491 20.7611 20.5045 20.5055C20.7599 20.2498 20.9589 19.9435 21.0887 19.6062C21.2607 19.1419 21.3516 18.6514 21.3574 18.1562C21.3949 17.3328 21.4043 17.0859 21.4043 15C21.4043 12.9141 21.3949 12.6672 21.3574 11.8437C21.3517 11.3481 21.2608 10.857 21.0887 10.3922ZM14.998 19.0125C14.2044 19.0125 13.4287 18.7772 12.7688 18.3363C12.109 17.8954 11.5947 17.2687 11.291 16.5355C10.9873 15.8023 10.9078 14.9955 11.0626 14.2172C11.2175 13.4388 11.5996 12.7239 12.1608 12.1627C12.7219 11.6016 13.4369 11.2194 14.2152 11.0646C14.9936 10.9098 15.8004 10.9892 16.5336 11.2929C17.2668 11.5966 17.8934 12.1109 18.3343 12.7708C18.7752 13.4306 19.0105 14.2064 19.0105 15C19.0105 16.0642 18.5878 17.0848 17.8353 17.8373C17.0828 18.5898 16.0622 19.0125 14.998 19.0125ZM19.1684 11.7672C18.9829 11.7672 18.8017 11.7122 18.6475 11.6092C18.4933 11.5062 18.3732 11.3598 18.3022 11.1885C18.2313 11.0171 18.2127 10.8286 18.2489 10.6468C18.285 10.4649 18.3743 10.2979 18.5054 10.1668C18.6366 10.0357 18.8036 9.94637 18.9855 9.9102C19.1673 9.87403 19.3558 9.89259 19.5271 9.96355C19.6984 10.0345 19.8448 10.1547 19.9479 10.3088C20.0509 10.463 20.1059 10.6443 20.1059 10.8297C20.1059 11.0783 20.0071 11.3168 19.8313 11.4926C19.6555 11.6684 19.417 11.7672 19.1684 11.7672Z" fill="white"/>
<path d="M14.9982 17.6059C16.4368 17.6059 17.6029 16.4397 17.6029 15.0012C17.6029 13.5626 16.4368 12.3965 14.9982 12.3965C13.5597 12.3965 12.3936 13.5626 12.3936 15.0012C12.3936 16.4397 13.5597 17.6059 14.9982 17.6059Z" fill="white"/>
<path d="M14.9981 0C12.0313 0 9.13124 0.879734 6.6645 2.52796C4.19776 4.17618 2.27517 6.51886 1.13986 9.25975C0.00454611 12.0006 -0.292504 15.0166 0.286274 17.9264C0.865053 20.8361 2.29366 23.5088 4.39145 25.6066C6.48924 27.7044 9.16198 29.133 12.0717 29.7118C14.9814 30.2906 17.9974 29.9935 20.7383 28.8582C23.4792 27.7229 25.8219 25.8003 27.4701 23.3335C29.1183 20.8668 29.998 17.9667 29.998 15C29.998 11.0218 28.4177 7.20644 25.6046 4.3934C22.7916 1.58035 18.9763 0 14.9981 0ZM22.7637 18.2219C22.7503 18.8697 22.6272 19.5105 22.3996 20.1172C22.1989 20.6361 21.8921 21.1073 21.4987 21.5007C21.1053 21.894 20.6341 22.2009 20.1152 22.4016C19.5086 22.6291 18.8677 22.7522 18.2199 22.7656C17.3855 22.8031 17.1199 22.8125 14.9981 22.8125C12.8762 22.8125 12.6106 22.8031 11.7762 22.7656C11.1284 22.7522 10.4875 22.6291 9.88086 22.4016C9.36199 22.2009 8.89077 21.894 8.49739 21.5007C8.10401 21.1073 7.79715 20.6361 7.59649 20.1172C7.36893 19.5105 7.24583 18.8697 7.23243 18.2219C7.19493 17.3875 7.18555 17.1219 7.18555 15C7.18555 12.8781 7.19493 12.6125 7.23243 11.7781C7.24583 11.1303 7.36893 10.4895 7.59649 9.88281C7.79715 9.36394 8.10401 8.89271 8.49739 8.49933C8.89077 8.10595 9.36199 7.7991 9.88086 7.59844C10.4875 7.37087 11.1284 7.24778 11.7762 7.23437C12.6106 7.19687 12.8762 7.1875 14.9981 7.1875C17.1199 7.1875 17.3855 7.19687 18.2199 7.23437C18.8677 7.24778 19.5086 7.37087 20.1152 7.59844C20.6341 7.7991 21.1053 8.10595 21.4987 8.49933C21.8921 8.89271 22.1989 9.36394 22.3996 9.88281C22.6272 10.4895 22.7503 11.1303 22.7637 11.7781C22.8012 12.6125 22.8105 12.8781 22.8105 15C22.8105 17.1219 22.8012 17.3875 22.7637 18.2219Z" fill="white"/>
</svg>
